<svg fill="none" height="500" viewBox="0 0 1500 500" width="1500" xmlns="http://www.w3.org/2000/svg" xmlns:xlink="http://www.w3.org/1999/xlink"><clipPath id="a"><path d="m0 0h1500v500h-1500z"/></clipPath><g clip-path="url(#a)"><g fill="#383838" opacity=".2"><path d="m373.506 239.153c-32.903 19.529-66.552 38.765-96.674 60.589-12.415 8.983-24.083 18.455-35.277 28.219-11.94 10.448-22.931 20.652-30.258 33.248-12.279 21.238-23.337 54.974 5.631 71.867 32.089 18.747 77.882 16.16 115.806 11.766 54.748-6.396 108.818-16.16 162.548-25.779 55.087-9.861 109.767-20.749 164.04-32.71 102.577-22.605 204.135-48.383 302.71-78.897 90.298-27.927 178.358-60.54 259.078-101.062 39.62-19.92 77.49-41.695 112.63-65.618 17.83-12.108 34.94-24.802 51.21-37.984 15.54-12.5957 31.14-26.2658 37.86-42.7194 5.83-14.3047 2.31-29.7814-12.95-40.3758-13.58-9.4227-32.78-13.475-50.95-15.67201-24.3-2.88052-49.47-3.368737-74.02-3.808139-27.01-.488223-54.01-.1464661-80.93.976439-108.28 4.49166-215.134 21.38421-317.502 46.72301-50.681 12.5476-99.729 27.6337-148.643 43.2077-38.67 12.3032-77.475 24.3142-115.805 37.0562-31.479 10.448-62.55 21.531-92.672 33.883-33.921 13.914-66.552 29.391-98.37 45.649-19.538 9.959-38.737 20.163-57.869 30.562-2.171 1.172-.068 3.808 2.171 2.637 62.618-34.03 127.067-66.301 197.08-92.031 31.682-11.619 64.11-22.165 96.606-32.515 43.486-13.865 86.837-28.1215 130.73-41.3037 97.556-29.3422 199.725-51.5076 304.474-63.0785 52.1-5.761 104.82-8.83681 157.52-8.83681 26.26 0 52.59.73234 78.71 2.3923 19.73 1.26938 40.7 3.71052 57.66 11.52201 20.15 9.3251 27.06 25.8271 20.35 42.0849-7.12 17.2341-24.42 31.3438-40.84 44.3798-31.75 25.192-66.41 48.432-103.25 69.718-74.63 43.159-157.73 78.213-243.89 107.995-90.977 31.442-185.617 57.366-281.208 80.655-104.136 25.387-209.969 46.576-316.955 64.933-25.983 4.443-51.967 8.739-78.221 12.352-23.473 3.223-47.761 6.982-71.777 6.152-19.538-.635-40.365-3.661-57.122-11.278-16.35-7.421-22.659-18.65-22.727-32.223-.136-14.549 5.224-29.391 13.433-42.621 7.869-12.694 20.013-23.191 32.292-33.785 22.32-19.285 47.014-36.666 73.336-53.07 17.572-10.986 35.55-21.629 53.46-32.321.882-.488-.475-1.416-1.425-.879z" opacity=".1"/><path d="m398.681 58.8995c-40.162.1465-81.07.6347-120.622 6.2493-27.272 3.8572-52.916 11.0826-78.086 19.3822-17.435 5.7611-33.514 11.7174-45.589 22.849-11.465 10.546-18.385 23.533-20.081 36.861-4.342 33.932 38.873 54.925 74.897 69.816 46.064 19.04 96.267 32.272 146.063 45.161 52.848 13.719 106.171 26.461 159.97 38.227 106.579 23.338 214.99 43.208 324.619 57.66 107.324 14.109 216.828 22.409 326.048 18.503 54.21-1.953 108.28-6.883 161.19-15.525 22.18-3.613 44.85-7.275 65.74-13.915 17.09-5.419 34.26-13.377 43.08-25.68 22.05-30.709-20.63-57.269-50.74-74.064-38.47-21.481-79.24-40.864-121.71-58.001-86.03-34.761-178.7-60.588-273.813-79.189-48.504-9.4717-97.689-16.844-147.214-22.9466-45.794-5.6637-91.451-11.7174-137.312-17.0879-36.092-4.1988-72.319-7.8118-108.818-9.8135-40.636-2.2458-81.342-2.4899-122.047-1.7088-25.168.4882-50.406 1.3671-75.507 2.4411-2.782.0977-2.782 3.2223 0 3.1249 82.089-3.4666 164.177-4.443 245.926 2.8313 38.194 3.3687 76.118 8.105 114.041 12.889 47.625 6.0053 95.523 11.4248 142.87 18.4554 94.64 14.0611 187.724 34.6151 275.844 63.3221 43.29 14.11 85.34 30.124 125.58 48.286 20.28 9.129 40.03 18.747 59.29 28.951 18.66 9.862 38.19 19.92 53.8 32.369 15.33 12.255 26.79 28.561 18.04 45.112-7.26 13.67-25.78 22.214-43.61 27.829-21.24 6.689-44.51 10.253-67.04 13.866-26.18 4.149-52.7 7.518-79.3 9.959-105.83 9.862-213.43 6.689-318.993-3.662-106.105-10.398-210.849-27.681-314.172-47.747-103.798-20.164-206.849-43.55-307.186-71.379-24.695-6.835-49.117-14.256-72.658-22.898-21.71-8.006-43.691-16.843-62.279-28.316-17.299-10.692-31.75-24.705-31.411-41.793.272-14.597 7.26-29.244 19.81-40.717 12.212-11.132 28.63-16.942 46.064-22.703 12.483-4.1498 25.17-8.1528 38.128-11.4731 28.967-7.4206 59.293-10.741 89.822-12.3522 22.387-1.1716 44.91-1.5132 67.366-1.6596 1.221-.1463 1.221-1.5136 0-1.5136z" opacity=".1"/></g><g fill="#fff" opacity=".23"><path d="m1058.08 222.832c-.6 1.189-1.2 2.379-.9 3.748.24 1.011 1.44 1.13 2.16.535.97-.773 1.21-2.082 1.45-3.154.18-.713-.18-1.427-.84-1.665-.67-.298-1.51-.119-1.87.536z" opacity=".012167"/><path d="m1032.02 236.218c0 .297-.06.654-.06.951 0 .357.12.713.24 1.071.24.952 1.74 1.011 1.98 0 .06-.358.24-.714.24-1.071 0-.297-.06-.654-.06-.951-.06-.596-.54-1.191-1.2-1.191-.66.06-1.14.535-1.14 1.191z" opacity=".012167"/><path d="m1038.32 257.577c0 .417-.06.893-.06 1.309 0 .476.12 1.012.18 1.488.18 1.19 2.28 1.19 2.46 0 .06-.476.18-.953.18-1.488 0-.416-.06-.892-.06-1.309-.12-1.666-2.58-1.725-2.7 0z" opacity=".012167"/><path d="m997.602 275.544c-.36.892-.661 1.725-.721 2.736-.06 1.012 1.562 1.547 2.042.536.421-1.011.601-1.964.661-2.975.06-.475-.421-.952-.901-1.011-.48-.119-.901.237-1.081.714z" opacity=".012167"/><path d="m1001.63 243.002c-.24.297-.42.594-.66.893-.24.356-.12.891.18 1.189.3.297.84.416 1.2.178.3-.238.6-.416.9-.654s.6-.535.6-1.012c0-.297-.12-.594-.36-.832-.6-.535-1.44-.357-1.86.238z" opacity=".012167"/><path d="m962.296 283.456c-.241.357-.481.654-.721 1.012-.3.357-.12.951.24 1.249.421.298.901.238 1.261-.06.361-.238.661-.535 1.021-.773.541-.416.361-1.309-.12-1.666-.54-.476-1.261-.297-1.681.238z" opacity=".012167"/><path d="m950.403 248.592c1.32 0 1.32-2.023 0-2.023-1.322-.059-1.322 2.023 0 2.023z" opacity=".012167"/><path d="m911.857 207.719c-.059.833-.059 1.606 0 2.499.12 1.666 2.523 1.666 2.643 0 .06-.833.06-1.606-.06-2.499-.12-1.666-2.463-1.666-2.583 0z" opacity=".012167"/><path d="m953.89 184.16v.951c0 .238 0 .417.06.655s.18.417.3.655c.481.773 1.622.773 2.102 0 .121-.179.241-.417.301-.655s.06-.417.06-.655c0-.297 0-.654 0-.951 0-.714-.661-1.428-1.442-1.428-.72.059-1.381.654-1.381 1.428z" opacity=".012167"/><path d="m986.195 216.407c-.48.655-1.021 1.368-1.501 2.022-.481.655-1.202 1.309-1.141 2.142 0 .595.6 1.071 1.201.952.901-.238 1.321-1.131 1.801-1.785.541-.713 1.081-1.428 1.562-2.141.36-.476.06-1.25-.421-1.547-.54-.357-1.141-.119-1.501.357z" opacity=".012167"/><path d="m1024.45 201.474c0 .238.06.535.06.773.06.655.54 1.25 1.2 1.19.66-.059 1.2-.535 1.2-1.19 0-.238 0-.535.06-.773.06-.655-.6-1.25-1.26-1.25s-1.32.535-1.26 1.25z" opacity=".012167"/><path d="m1001.08 166.965c1.26 0 1.26-1.964 0-1.964-1.263-.059-1.263 1.964 0 1.964z" opacity=".012167"/><path d="m894.25 255.316c-.301.654-.661 1.309-.901 2.022-.24.655.24 1.428.841 1.666.66.298 1.441.06 1.741-.594.301-.535.601-1.072.841-1.666.361-.654.18-1.607-.54-1.963-.601-.357-1.622-.238-1.982.535z" opacity=".012167"/><path d="m977.015 269.295c0-.356 0-.773-.18-1.07-.18-.417-.481-.774-.961-.774s-.841.416-.961.774c-.12.357-.12.714-.12 1.07 0 .596.54 1.131 1.141 1.131.54-.059 1.081-.535 1.081-1.131z" opacity=".012167"/><path d="m924.272 276.197c2.282 0 2.282-3.569 0-3.569-2.281.059-2.281 3.569 0 3.569z" opacity=".012167"/><path d="m867.531 239.549c2.042 0 2.042-3.093 0-3.093-2.041 0-2.041 3.093 0 3.093z" opacity=".012167"/><path d="m877.024 224.855c1.501 0 1.501-2.32 0-2.32-1.502-.059-1.502 2.32 0 2.32z" opacity=".012167"/><path d="m924.101 252.103c1.922 0 1.922-2.915 0-2.915s-1.922 2.915 0 2.915z" opacity=".012167"/><path d="m940.74 230.328c1.622 0 1.622-2.498 0-2.498-1.622.059-1.622 2.498 0 2.498z" opacity=".012167"/><path d="m1075.13 218.607c1.63 0 1.63-2.498 0-2.498-1.56 0-1.56 2.498 0 2.498z" opacity=".012167"/></g><g fill="#fff" opacity=".23"><path d="m346.834 355.586c.3-.239.6-.417.9-.655.301-.238.541-.654.781-.952.24-.357.12-.952-.18-1.249-.36-.298-.841-.357-1.261-.179-.361.179-.721.298-1.021.535-.24.179-.481.417-.721.656-.42.416-.42 1.07-.12 1.545.48.418 1.201.656 1.622.299z" opacity=".012167"/><path d="m359.618 337.321c.841-.594 1.802-1.19 2.342-2.141.541-.834-.36-2.142-1.381-1.785s-1.802 1.13-2.582 1.844c-.481.416-.481 1.25-.12 1.726.36.475 1.201.713 1.741.356z" opacity=".012167"/><path d="m399.381 357.314c.48-.178 1.021-.297 1.501-.535.481-.238.901-.476 1.321-.774.361-.297.361-.951.181-1.308-.241-.417-.781-.595-1.202-.477-.96.238-1.741.715-2.522 1.25-1.021.595-.48 2.201.721 1.844z" opacity=".012167"/><path d="m371.279 374.624c.36 0 .78-.06 1.141-.06.48-.06.901-.357.961-.833.06-.475-.241-.952-.721-1.071-.36-.119-.721-.178-1.081-.297-.661-.179-1.321.297-1.441.952-.06.654.48 1.369 1.141 1.309z" opacity=".012167"/><path d="m427.786 379.386c.42 0 .84-.059 1.261-.059.48 0 .901-.357.961-.834.06-.475-.24-.951-.721-1.07-.42-.119-.841-.178-1.201-.298-.661-.179-1.321.238-1.441.952-.06.713.42 1.369 1.141 1.309z" opacity=".012167"/><path d="m407.303 412.225c1.321 0 1.321-2.024 0-2.024-1.381-.059-1.381 2.024 0 2.024z" opacity=".012167"/><path d="m400.098 466.069c.36-.297.78-.535 1.141-.832.42-.298 1.02-.774 1.261-1.25.24-.475.24-.952-.12-1.368-.301-.417-.841-.536-1.322-.417-.54.119-1.081.595-1.501.892-.36.299-.661.655-1.021.953-.48.416-.48 1.19-.12 1.666.42.475 1.141.713 1.682.356z" opacity=".012167"/><path d="m355.48 448.34c.24-.178.48-.417.72-.595.361-.298.541-.714.721-1.13.12-.357 0-.893-.3-1.131-.3-.297-.721-.357-1.141-.297-.12 0-.301.059-.421.119-.3.119-.54.297-.78.535-.241.178-.481.417-.721.596-.6.475-.54 1.487 0 1.963.541.475 1.321.416 1.922-.06z" opacity=".012167"/><path d="m360.166 403.303c.841-.059 1.742-.059 2.582-.119.841-.059 1.682.06 2.403-.356.6-.357.66-1.31 0-1.666-.781-.417-1.562-.238-2.403-.238-.84.059-1.741.059-2.582.119-1.441.059-1.501 2.32 0 2.26z" opacity=".012167"/><path d="m448.865 449.529c.6-.119 1.201-.298 1.801-.476.721-.238 1.201-1.011.961-1.725-.24-.773-.961-1.131-1.741-.952-.601.119-1.202.238-1.802.357-.781.178-1.261 1.07-1.021 1.785.24.713.961 1.189 1.802 1.011z" opacity=".012167"/><path d="m407.486 377.126c-.3.238-.54.476-.72.832-.181.357-.241.893.12 1.25.3.297.78.297 1.141.179.42-.119.72-.417 1.081-.655.48-.357.42-1.19 0-1.547-.481-.536-1.141-.476-1.622-.059z" opacity=".012167"/><path d="m444.839 416.152c2.282 0 2.282-3.569 0-3.569-2.343 0-2.343 3.569 0 3.569z" opacity=".012167"/><path d="m451.922 482.548c2.042 0 2.042-3.093 0-3.093-1.982 0-1.982 3.093 0 3.093z" opacity=".012167"/><path d="m434.69 483.859c1.502 0 1.502-2.32 0-2.32-1.501 0-1.501 2.32 0 2.32z" opacity=".012167"/><path d="m426.283 430.966c1.921 0 1.921-2.915 0-2.915-1.922 0-1.922 2.915 0 2.915z" opacity=".012167"/><path d="m398.895 431.502c1.622 0 1.622-2.498 0-2.498-1.621 0-1.621 2.498 0 2.498z" opacity=".012167"/></g><g fill="#fff" opacity=".1"><path d="m753.995 409.74c.601-1.19 1.261-2.381.901-3.748-.24-1.012-1.442-1.131-2.162-.536-.961.714-1.201 2.082-1.442 3.153-.18.714.181 1.428.841 1.666.661.357 1.562.119 1.862-.535z" opacity=".001"/><path d="m780.111 396.473c0-.297.06-.654.06-.951 0-.358-.12-.715-.24-1.071-.24-.952-1.742-1.012-1.982 0-.06.356-.24.713-.24 1.071 0 .297.06.654.06.951.06.596.54 1.191 1.201 1.191.66-.06 1.141-.536 1.141-1.191z" opacity=".001"/><path d="m773.872 375.115c0-.416.06-.892.06-1.308 0-.477-.12-1.012-.18-1.487-.18-1.191-2.282-1.191-2.462 0-.06.475-.18.951-.18 1.487 0 .416.06.892.06 1.308.18 1.666 2.642 1.666 2.702 0z" opacity=".001"/><path d="m814.702 357.326c.36-.893.66-1.726.72-2.738.061-1.011-1.561-1.546-2.041-.535-.421.953-.601 1.963-.661 2.975-.06.476.42.952.901 1.011.48.06.901-.238 1.081-.713z" opacity=".001"/><path d="m810.564 389.81c.241-.298.421-.595.661-.892.24-.357.12-.893-.18-1.19-.3-.298-.841-.417-1.201-.179-.3.238-.601.416-.901.654-.3.239-.601.536-.601 1.012 0 .297.121.595.361.833.6.536 1.441.357 1.861-.238z" opacity=".001"/><path d="m850.022 349.475c.24-.358.481-.655.721-1.012.24-.297.12-.892-.18-1.19-.301-.238-.841-.417-1.201-.179-.301.238-.661.477-.961.774-.301.238-.601.535-.541.952 0 .297.12.595.361.774.18.178.54.356.78.356.481.06.781-.178 1.021-.475z" opacity=".001"/><path d="m861.79 386.477c1.321 0 1.321-2.023 0-2.023-1.322-.06-1.322 2.023 0 2.023z" opacity=".001"/><path d="m900.161 425.449c.06-.834.06-1.607 0-2.5-.12-1.666-2.521-1.666-2.641 0-.06.834-.06 1.607 0 2.5.18 1.605 2.521 1.665 2.641 0z" opacity=".001"/><path d="m858.058 448.828c0-.297 0-.654 0-.951 0-.239 0-.417-.06-.655-.061-.238-.181-.417-.301-.654-.48-.774-1.621-.774-2.102 0-.12.178-.24.416-.3.654s-.06.416-.06.655v.951c0 .715.661 1.428 1.441 1.428.721-.059 1.382-.654 1.382-1.428z" opacity=".001"/><path d="m824.914 416.999c1.441 0 1.441-2.26 0-2.26-1.442 0-1.442 2.26 0 2.26z" opacity=".001"/><path d="m787.566 431.279c0-.237-.06-.536-.06-.774-.06-.654-.54-1.248-1.201-1.189-.66.06-1.201.535-1.201 1.189 0 .238 0 .537-.06.774-.06.654.601 1.249 1.261 1.249.661-.059 1.321-.535 1.261-1.249z" opacity=".001"/><path d="m810.805 467.867c1.261 0 1.261-1.964 0-1.964-1.321-.059-1.321 1.964 0 1.964z" opacity=".001"/><path d="m917.939 377.912c.3-.655.661-1.309.901-2.023.24-.655-.24-1.428-.841-1.666-.661-.298-1.441-.059-1.742.595-.3.535-.6 1.071-.9 1.606-.361.655-.181 1.607.54 1.964.721.356 1.742.238 2.042-.476z" opacity=".001"/><path d="m835.244 363.629c0 .357 0 .773.18 1.07.18.417.48.774.961.774.48 0 .841-.416.961-.774.12-.357.12-.713.12-1.07 0-.596-.541-1.131-1.141-1.131-.541 0-1.081.476-1.081 1.131z" opacity=".001"/><path d="m888.032 360.418c2.282 0 2.282-3.57 0-3.57-2.342 0-2.342 3.57 0 3.57z" opacity=".001"/><path d="m944.594 396.83c2.042 0 2.042-3.093 0-3.093-1.981 0-2.041 3.093 0 3.093z" opacity=".001"/><path d="m935.06 410.75c1.502 0 1.502-2.32 0-2.32-1.501 0-1.501 2.32 0 2.32z" opacity=".001"/><path d="m888.089 383.918c1.922 0 1.922-2.915 0-2.915-1.862 0-1.862 2.915 0 2.915z" opacity=".001"/><path d="m871.397 405.158c1.621 0 1.621-2.499 0-2.499-1.622 0-1.622 2.499 0 2.499z" opacity=".001"/><path d="m736.939 416.463c1.621 0 1.621-2.499 0-2.499-1.622 0-1.622 2.499 0 2.499z" opacity=".001"/></g><path d="m507.181 264.138 2.946-14.138 1.443 16.545 14.127 1.445-12.684 3.429-2.886 19.493-2.946-17.568-11.181 1.985 6.793-6.317-6.312-4.874z" fill="#ffdd6c"/><path d="m1462.8 54.9448c20.81 11.0102 7.22 61.3682-23.43 41.5138-30.67-19.8544-7.22-57.7582 23.43-41.5138z" fill="#fb8071"/><path d="m1000.98 419.517c20.73 9.566 3.6 34.294-14.433 25.269-18.028-9.025-9.018-36.099 14.433-25.269z" fill="#ffdd6c"/><path d="m202.978 444.735c20.739 9.566 3.606 34.294-14.429 25.269-18.033-9.025-9.017-36.099 14.429-25.269z" fill="#fb8071"/><path d="m640.793 265.372c10.881 5.054 1.924 18.05-7.575 13.297-9.498-4.753-4.749-18.952 7.575-13.297z" fill="#ffdd6c"/><path d="m183.876 32.9114c-4.749-3.0683-9.498-5.5351-14.608-7.9417-4.328-1.9854-10.219-6.0165-15.029-4.6327-2.104.6017-2.765 2.8277-1.923 4.6929 1.202 2.5269 3.546 3.5497 5.951 4.6928 2.525 1.2033 5.05 2.3465 7.635 3.4294 5.11 2.2261 10.099 4.2115 15.51 5.7156 3.606 1.0228 5.47-3.9709 2.464-5.9563z" fill="#fb8071"/><path d="m160.433 59.9877c-4.448-.6016-9.017-.7822-13.465-.4211-3.788.3008-8.958.6017-11.903 3.1887-1.563 1.3838-.722 4.0912 1.202 4.5726 1.984.4813 3.487.0601 5.471-.3009 2.104-.3609 4.268-.5415 6.372-.7821 4.148-.361 8.236-.3008 12.384.0601 4.087.4814 3.907-5.7758-.061-6.3173z" fill="#fb8071"/><path d="m217.106 436.611c13.166 6.076 2.285 21.839-9.197 16.064-11.422-5.716-5.712-22.984 9.197-16.064z" fill="#ffdd6c"/><path d="m858.916 475.156h-172.94c-13.426 0-24.347-10.891-24.347-24.367v-120.08c0-13.438 10.883-24.367 24.347-24.367h172.978c13.427 0 24.348 10.892 24.348 24.367v120.08c-.038 13.476-10.921 24.367-24.386 24.367z" fill="#2a56b6"/><path d="m775.847 353.842c11.519-15.721 53.183-2.022 76.072-12.764 19.336-9.096 26.48-44.619 26.48-44.619l27.303-3.743s.822 51.918-26.181 72.992c-41.627 32.452-123.16 14.672-103.674-11.866z" fill="#ffc49c"/><path d="m769.645 381.165c-8.939-7.861-6.433-23.732 8.901-31.031 15.297-7.298 50.042-8.534 50.042-8.534l1.122 44.356s-13.95 1.685-35.83 3.706c-18.924 1.722-18.85-3.781-24.235-8.497z" fill="#fb8071"/><path d="m757.597 358.969c-19.449-1.011-35.232 39.902-58.046 50.795-19.262 9.245-51.276-7.749-51.276-7.749l-20.197 18.791s39.645 33.539 73.006 25.978c51.501-11.68 89.35-86.055 56.513-87.815z" fill="#ffc49c"/><path d="m774.801 376.524c-.41-11.904-8.975-23.957-24.31-16.733-15.334 7.225-37.811 31.031-37.811 31.031l32.201 29.758s5.722-4.267 21.131-19.914c13.316-13.55 9.014-16.993 8.789-24.142z" fill="#fb8071"/><path d="m771.888 281.971s14.474 7.113 21.542 23.283c8.266 18.903 8.079 36.982 8.079 36.982s-2.805 1.759-6.171 3.369c-1.384.674-7.219 2.882-9.537 3.182-14.288 1.946-16.568-9.957-16.568-9.957l-2.506-45.891z" fill="#000"/><path d="m794.699 348.714c16.083.261 22.703 62.922 22.703 62.922l6.021 61.724h-90.509s2.917-100.241 20.607-117.422c21.618-20.961 41.178-7.224 41.178-7.224z" fill="#fb8071"/><path d="m784.898 336.922 3.216 11.941s-10.022 8.684-19.785 1.796c-9.761-6.887-5.759-19.164-5.759-19.164z" fill="#ffc49c"/><path d="m773.306 280.063s23.226 11.716 26.928 30.507c3.703 18.791-11.444 27.962-19.635 28.935-8.191 1.01-21.169-2.284-28.2-8.498-7.031-6.25-22.403-21.634-8.34-37.768 14.062-16.132 22.327-14.299 29.247-13.176z" fill="#ffc49c"/><path d="m780.974 312.779c.909 0 1.646-.738 1.646-1.647s-.737-1.647-1.646-1.647-1.646.738-1.646 1.647.737 1.647 1.646 1.647z" fill="#000"/><path d="m795.372 305.18c.909 0 1.646-.737 1.646-1.647 0-.909-.737-1.646-1.646-1.646s-1.645.737-1.645 1.646c0 .91.736 1.647 1.645 1.647z" fill="#000"/><path d="m793.876 296.495c-.897-.186-1.944.113-2.917.413-3.291.973-4.376-.3-4.002-1.797.224-.974 2.394-2.546 4.713-2.172 2.057.3 2.842 3.669 2.206 3.556z" fill="#000"/><path d="m739.828 328.425s1.945 7.973 9.275 6.55c7.368-1.422 10.921-5.091 10.921-5.091l-10.136-10.63c.038 0-9.238 2.059-10.06 9.171z" fill="#ffc49c"/><path d="m749.333 325.655s-3.066.973-1.532 3.444c1.271 1.984 3.852-.3 3.852-.3" stroke="#000" stroke-linecap="round" stroke-linejoin="round" stroke-miterlimit="10" stroke-width="2.8606"/><path d="m773.68 287.587s1.608 4.754-3.254 12.352c-7.629 11.94-16.232 14.336-15.895 15.721 1.234 5.053 2.431 9.657.935 10.219-2.506.898-8.939-4.866-8.939-4.866s-9.723 3.78-5.386 10.368c4.339 6.588 16.681-.037 16.681-.037s4.377 3.219 7.368 11.379c4.04 10.968 4.002 16.957 4.002 16.957s-.748 2.62-13.09 4.005c-5.61.636-8.303.449-8.303.449-.299.112 1.907-6.252 1.197-11.529-.823-6.064-2.619-7.374-2.619-7.374s.263 2.134.861 9.47c.337 3.78-.972 8.984-1.047 9.021-1.16.374-3.628 1.46-3.478.487.748-5.166-.673-10.107-.823-10.407 0 0 1.009 7.3-.112 10.482 0 0-3.553.898-3.741.935-6.17 1.385-6.732-.374-6.732-.374s5.798-15.197.786-27.624c-6.695-16.694-7.742-23.732-4.937-35.186 0 0 8.191-28.035 46.152-28.035 20.047 0 17.13 18.416 17.13 18.416s-8.901-8.086-16.756-4.829z" fill="#000"/><path d="m788.902 306.34c.15.186 4.339 3.705 4.264 5.764-.075 2.058-1.309 2.507-1.309 2.507" stroke="#000" stroke-linecap="round" stroke-linejoin="round" stroke-miterlimit="10" stroke-width="2.8606"/><path d="m772.334 325.768c1.631 0 2.954-1.324 2.954-2.957s-1.323-2.957-2.954-2.957c-1.632 0-2.955 1.324-2.955 2.957s1.323 2.957 2.955 2.957z" fill="#fb8071" opacity=".43"/><path d="m878.398 296.423c.636-6.738 1.796-21.898 5.05-27.138s22.253 11.23 22.253 16.395c0 1.984.112 6.175-.075 10.78-.261 4.53-27.228-.037-27.228-.037z" fill="#ffc49c"/><path d="m896.58 269.47c1.609-.861 4.526-.449 6.433 1.385 1.908 1.834-2.692 8.085-3.814 9.208-1.123 1.123-3.628-10.593-3.104-10.593z" fill="#ffc49c"/><path d="m770.65 310.683c1.721 1.311 2.58-2.395 5.236-4.567 2.655-2.17 2.207-3.78.786-4.341-2.094-.787-9.126 6.513-6.022 8.908z" fill="#000"/><path d="m889.242 289.945s16.755-11.716 19.074-8.197c2.319 3.518-15.895 14.037-15.895 14.037z" fill="#ffc49c"/><path d="m893.625 292.229s13.539-8.61 15.709-5.99c1.758 2.134-1.01 4.68-4.451 6.701-4.114 2.433-9.2 4.155-8.265 3.706z" fill="#ffc49c"/><path d="m902.338 276.581s-1.01 4.866-4.974 7.224c-4.152 2.471-8.977.749-6.995-2.994 1.983-3.706 11.969-4.23 11.969-4.23z" fill="#dbab8a"/><path d="m903.682 260.673c-6.583-.262-12.417 5.166-12.005 11.903.186 3.219 1.795 5.952 4.563 7.673 2.954 1.835 6.544 1.984 9.911 1.835 3.59-.15 3.627-5.765 0-5.615-3.105.149-8.49.224-8.864-3.967-.337-3.744 2.917-6.364 6.433-6.214 3.59.149 3.59-5.466-.038-5.615z" fill="#fb8071"/><path d="m903.014 270.892c3.067 2.059 1.235 5.502-2.992 9.471-3.889 3.667-8.49 4.978-9.724 2.508-1.234-2.471 1.87-5.204 4.75-8.498 4.413-5.016 6.47-4.491 7.966-3.481z" fill="#ffc49c"/><path d="m888.311 275.123c3.741-3.818 11.968-11.266 9.911-14.636-2.73-4.379-12.342 4.754-15.147 9.733-2.207 3.93 3.553 6.625 5.236 4.903z" fill="#ffc49c"/><path d="m931.319 284.331h-23.824c-1.757 0-3.179-1.422-3.179-3.182v-22.908h30.182v22.908c0 1.76-1.459 3.182-3.179 3.182z" fill="#fb8071"/><path d="m898.971 282.197s-3.365 5.802-2.131 7.599c1.234 1.796 6.807-1.947 6.807-1.947s-5.162 3.369-4.189 5.503c1.01 2.133 6.545-1.236 6.246-1.048-.299.187-5.161 4.416-7.219 2.432-2.057-1.983 1.235-4.416 1.235-4.416s-3.255 1.984-4.302.112c-1.084-1.872 3.553-8.235 3.553-8.235z" fill="#dbab8a"/><path d="m649.1 408.082s4.113-11.042 2.955-14.86c-1.16-3.855-5.087-1.648-6.433 2.133-1.347 3.781-4.114 9.396-4.114 9.396z" fill="#ffc49c"/><path d="m647.192 404.339s-6.508-2.021-11.893-5.727c-4.937-3.369-5.049-7.449-8.004-6.401-3.629 1.311-.898 5.952-.898 5.952s-2.917-4.754-5.536-2.396c-2.542 2.284 1.085 5.877 1.085 5.877s-3.104-4.08-5.684-1.385c-2.319 2.396 5.684 9.47 5.684 9.47s-7.853-5.166-9.387-3.518c-1.534 1.647.187 3.706 3.965 6.625 3.777 2.919 14.1 9.47 14.1 9.47z" fill="#ffc49c"/><path d="m626.473 412.498c-.186-.075-.261-.3-.186-.487.037-.075 1.009-2.096 3.029-3.144 2.917-1.46 4.899-.862 5.647-.487.449-.674 1.608-2.284 2.843-2.845 1.122-.487 2.692-.187 2.767-.187.188.038.337.224.299.412-.037.186-.224.336-.411.299 0 0-1.422-.262-2.356.15-1.309.561-2.693 2.807-2.693 2.844-.037.075-.15.15-.225.15-.111.038-.186 0-.299-.075-.075-.037-1.944-1.272-5.236.374-1.795.899-2.692 2.771-2.692 2.808-.075.188-.299.262-.487.188z" fill="#fb8071" opacity=".1849"/><path d="m1421.85 465.126h-216.7c-24.49 0-44.41-19.864-44.41-44.44v-143.833c0-24.506 19.86-44.439 44.41-44.439h216.7c24.48 0 44.4 19.864 44.4 44.439v143.833c-.07 24.507-19.92 44.44-44.4 44.44z" fill="#2a56b6"/><path d="m1414.69 417 27.63 83.078-67.32-81.439z" fill="#2a56b6"/><path d="m1296.96 258.218c25.71 16.315.82 57.888-56.13 55.226-56.89-2.662-80.56-9.011-111.12-58.981-21.82-35.633-25.3-64.441-25.3-64.441l32.4-7.919s6.82-19.045 10.98-11.468c10.3 18.772 30.49 55.021 47.75 66.011 37.92 24.166 63.01-2.798 101.42 21.572z" fill="#ffc49c"/><path d="m1285.5 320.065c-9.27 2.867-39.09 2.253-47.13 1.57-8.05-.682-8.05-.682-8.05-.682s6.28-37.955 8.32-56.387c1.98-18.363 1.71-21.093 1.71-21.093s26.26 1.365 46.58.546c20.33-.82 22.31 15.086 22.85 31.538.41 16.52-24.28 44.508-24.28 44.508z" fill="#4881ff"/><path d="m1153.18 181.489s8.11-21.913 5.79-29.491c-2.31-7.577-10.1-3.276-12.75 4.233-2.66 7.51-8.19 18.704-8.19 18.704z" fill="#ffc49c"/><path d="m1149.35 174.048s-12.89-4.027-23.59-11.332c-9.75-6.69-10.03-14.814-15.89-12.697-7.23 2.594-1.78 11.81-1.78 11.81s-5.8-9.421-10.98-4.779c-5.05 4.505 2.12 11.673 2.12 11.673s-6.21-8.055-11.33-2.731c-4.56 4.78 11.25 18.774 11.25 18.774s-15.54-10.241-18.62-6.964c-3.06 3.277.35 7.373 7.85 13.176 7.5 5.802 27.96 18.772 27.96 18.772z" fill="#ffc49c"/><path d="m1108.3 190.225c-.41-.204-.54-.614-.35-.955.08-.137 1.98-4.165 6.01-6.213 5.8-2.935 9.69-1.706 11.19-1.024.89-1.365 3.2-4.573 5.66-5.598 2.25-.955 5.39-.408 5.52-.341.41.068.62.478.55.819-.07.41-.48.614-.82.547 0 0-2.79-.478-4.64.273-2.65 1.092-5.32 5.598-5.32 5.598-.06.204-.27.272-.47.341-.21.068-.42 0-.55-.137-.14-.136-3.89-2.526-10.37.751-3.55 1.775-5.32 5.529-5.32 5.529-.34.41-.75.547-1.09.41z" fill="#fb8071" opacity=".1849"/><path d="m1269 327.301c3.48 59.459-.83 134.071-.83 134.071s160.98-.887 159.96-1.023c-1.03-.137-17.4-112.022-33.71-151.753-23.25-56.59-50.46-67.717-69.01-68.332-35.34-1.297-59.89 27.579-56.41 87.037z" fill="#4881ff"/><path d="m1292.87 227.978s4.57 22.937 7.23 28.671 42.62-.204 40.1-7.645c-4.43-12.902-7.23-35.021-7.23-35.021z" fill="#ffc49c"/><path d="m1296.96 139.574c-13.03 4.437-34.31 21.298-38.26 48.603-3.34 22.937 10.16 39.867 28.85 45.464 12.75 3.824 39.56 5.257 58.39-11.741 27.07-24.439 12.62-59.117 2.25-67.65s-36.98-19.592-51.23-14.676z" fill="#ffc49c"/><path d="m1272.54 213.164s3 4.643 8.32 3.141c5.59-1.639 5.59-5.802 5.59-5.802" stroke="#000" stroke-linecap="round" stroke-linejoin="round" stroke-miterlimit="10" stroke-width="2.6339"/><path d="m1268.79 186.609c1.32 0 2.39-1.07 2.39-2.39 0-1.319-1.07-2.388-2.39-2.388s-2.39 1.069-2.39 2.388c0 1.32 1.07 2.39 2.39 2.39z" fill="#000"/><path d="m1294.84 193.979c1.32 0 2.39-1.07 2.39-2.39 0-1.319-1.07-2.389-2.39-2.389-1.31 0-2.38 1.07-2.38 2.389 0 1.32 1.07 2.39 2.38 2.39z" fill="#000"/><path d="m1301.26 207.771c2.29 0 4.15-1.865 4.15-4.164 0-2.3-1.86-4.164-4.15-4.164-2.3 0-4.17 1.864-4.17 4.164 0 2.299 1.87 4.164 4.17 4.164z" fill="#fb8071" opacity=".43"/><path d="m1261.97 197.941c2.3 0 4.16-1.865 4.16-4.165 0-2.299-1.86-4.164-4.16-4.164s-4.16 1.865-4.16 4.164c0 2.3 1.86 4.165 4.16 4.165z" fill="#fb8071" opacity=".43"/><path d="m1291.64 172.682c-3.34.614 1.23 5.188 7.7 7.986 8.67 3.687 9.56 7.373 11.81 4.71 2.58-3.208-15.62-13.447-19.51-12.696z" fill="#000"/><path d="m1277.66 168.724c1.09 2.525.34 3.345-8.66 2.047-3.48-.477-5.19-.136-4.44-2.321.96-2.799 12.28-1.638 13.1.274z" fill="#000"/><path d="m1279.5 183.672s-7.84 7.987-8.19 13.653c-.4 5.597 7.24 4.779 7.24 4.779" stroke="#000" stroke-linecap="round" stroke-linejoin="round" stroke-miterlimit="10" stroke-width="2.6339"/><path d="m1055.71 360.407 43.18-4.505c3.2-.342 5.52-3.208 5.18-6.349l-4.37-41.505-54.7 5.735 4.37 41.505c.27 3.139 3.13 5.461 6.34 5.119z" fill="#fb8071"/><path d="m1103.18 322.316c6.01-.888 11.53 3.822 11.95 9.761.54 7.783-9.08 8.943-14.81 9.284-6.55.41-6.62 10.649 0 10.241 6.48-.41 13.1-1.298 18.35-5.462 4.71-3.686 7.16-9.147 6.54-15.086-1.15-12.697-12.68-20.412-24.82-18.636-2.73.41-4.23 3.891-3.55 6.28.89 2.936 3.61 4.028 6.34 3.618z" fill="#fb8071"/><g fill="#ffc49c"><path d="m1127.33 367.234s-38.75-9.147-39.43 0c-.4 5.052 13.44 7.1 20.61 8.397 8.58 1.57 22.16 5.051 20.32 4.846z"/><path d="m1104.76 331.396c-2.81 6.143 3.27 9.693 13.7 11.878 9.56 1.979 18.62 6.726 17.47-5.394-.48-5.051-7.85-6.348-15.49-8.669-11.6-3.55-14.32-.751-15.68 2.185z"/><path d="m1098.89 354.675c-2.33 6.347 4.08 9.42 14.59 10.785 9.69 1.229 17.87-1.775 16.98-6.758-.81-5.052-8.31-5.666-16.1-7.372-11.86-2.731-14.32.272-15.47 3.345z"/><path d="m1101.89 343c-2.73 6.143 3.41 9.694 13.85 11.741 9.54 1.843 17.93-.546 17.39-5.598-.48-5.051-7.92-6.212-15.56-8.464-11.66-3.55-14.39-.683-15.68 2.321z"/><path d="m1134.08 337.131c-7.51-6.212-22.38-19.592-19.24-26.009 4.1-8.464 22.18 12.151 32.4 20.548 6.35 5.256-9.76 8.328-13.16 5.461z"/><path d="m1372.6 288.663c-27.21-22.801-89.69 29.149-139.83 44.371-37.23 11.333-94.19-3.618-94.19-3.618l-27.21 45.26s71.96 34.337 133.35 23.004c98.56-18.226 161.3-81.029 127.88-109.017z"/></g><path d="m1381.81 293.784c5.32 8.329 4.57 27.306-15.69 50.858-20.26 23.55-49.18 34.199-49.18 34.199l-31.17-71.131s39.5-29.763 63.03-32.767c15.95-1.98 28.85 12.424 33.01 18.841z" fill="#4881ff"/><path d="m1335.91 205.313s0 2.048-1.03 3.482c-1.02 1.502-1.97 1.706-1.97 1.706s3.47-1.024 5.66 0" stroke="#000" stroke-linecap="round" stroke-linejoin="round" stroke-miterlimit="10" stroke-width="2.6339"/><path d="m1342.32 205.313c-3.48-7.372-8.94-5.325-11.11-2.662-2.26 2.662-2.73 10.102-5.47 10.376-2.72.273-2.72-32.289-2.72-32.289l36.56-6.622s6.68 12.834.89 28.535c-6.55 17.543-24.97 26.555-24.97 26.555s-2.39-8.329 3.21-12.561c3.41-2.731 5.66-7.031 3.61-11.332z" fill="#000"/><path d="m1322.94 185.448s1.23-10.103-9.27-14.267c-10.5-4.232-32.88-1.229-44.81-16.589-11.94-15.359-6.69-25.667-.42-27.783 6.29-2.116 14.95 4.027 15.97-.614 1.02-4.643-.21-15.565 10.91-17.067 11.12-1.501 18.76 10.514 29.26 18.09 10.5 7.578 29.26-6.076 39.56 17.886 10.3 23.961-3.95 30.992-3.95 30.992l-36.36 9.147" fill="#000"/><path d="m699.897 82.9769h-16.182v-1.0574c0-4.4524 3.615-8.0699 8.063-8.0699 4.449 0 8.064 3.6175 8.064 8.0699v1.0574z" fill="#2b67bf"/><path d="m691.776 73.3483c2.304 0 4.171-1.8689 4.171-4.1742s-1.867-4.1741-4.171-4.1741c-2.303 0-4.171 1.8688-4.171 4.1741s1.868 4.1742 4.171 4.1742z" fill="#2b67bf"/><path d="m586.176 131.786-6.84 20.648 16.683-20.203z" fill="#2a56b6"/><path d="m596.073 135.236h37.649c10.509 0 19.073-8.57 19.073-19.089v-19.535c0-10.5187-8.564-19.0895-19.073-19.0895h-37.649c-10.509 0-19.073 8.5708-19.073 19.0895v19.535c.055 10.519 8.564 19.089 19.073 19.089z" fill="#2a56b6"/><path d="m595.797 128.724h39.593v-2.56c0-10.964-8.841-19.813-19.797-19.813-10.955 0-19.796 8.849-19.796 19.813z" fill="#ffdd6c"/><path d="m615.595 105.071c5.651 0 10.232-4.585 10.232-10.2402 0-5.6556-4.581-10.2405-10.232-10.2405s-10.232 4.5849-10.232 10.2405c0 5.6552 4.581 10.2402 10.232 10.2402z" fill="#ffdd6c"/><path d="m609.81 98.8933c.834 1.8367 2.836 2.8387 4.782 2.3937.445-.112.278-.78-.167-.668-1.668.334-3.337-.557-4.003-2.0596-.167-.4453-.779-.1113-.612.3339z" fill="#2a56b6"/><path d="m623.549 93.7723-6.173-.2227v.334c-.612.0556-1.168-.0556-1.724-.2226 0-.167 0-.3339 0-.3339l-6.117-.8906s-.611 3.7289 2.781 3.7846c2.058.0556 2.836-1.0575 3.114-1.8923.667.1669 1.279.2783 1.946.2226.222 1.1131.834 2.6714 3.058 2.4489 3.504-.334 3.115-3.228 3.115-3.228z" fill="#2a56b6"/><path d="m328.517 323.943h-232.8115c-26.3076 0-47.7055-21.341-47.7055-47.744v-154.456c0-26.329 21.3246-47.7445 47.7055-47.7445h232.8115c26.308 0 47.706 21.3422 47.706 47.7445v154.529c0 26.329-21.325 47.671-47.706 47.671z" fill="#2a56b6"/><path d="m402.456 238.574c3.665 1.614-6.668 25.01-14.362 40.045-.66 1.32 2.125 5.207 1.685 6.454-1.979 6.087-8.354 5.574-8.941 5.94-2.564 1.467 10.626-37.037 10.992-39.237.367-2.2 5.277-15.548 10.626-13.202z" fill="#7c6746"/><path d="m325.958 45.3217c-1.906-7.7741-14.656-4.0337-14.656-4.0337s9.526-6.5273 3.224-14.9615-13.264-1.5402-13.264-1.5402 3.591-3.667-.366-9.0209c-1.466-1.9802-4.25-2.4202-7.182-1.9802-.366-2.0535-1.979-3.5936-4.836-5.20715-6.962-3.88703-13.264 5.06055-13.264 5.06055s1.686-11.44123-8.794-12.54129c-10.479-1.1734735-10.186 8.65419-10.186 8.65419s-.219-5.13388-6.814-5.86729c-3.298-.36665-6.229 2.86032-7.915 6.74739-1.539-1.61351-3.811-1.98021-7.255-1.46683-7.914 1.10013-7.548 12.02793-7.548 12.02793s-5.569-10.1211-14.583-4.6939c-9.013 5.4273-2.857 13.0547-2.857 13.0547s-4.251-5.2805-9.014-.5133c-3.737 3.7403-.073 10.341.147 9.6075.146.8068-5.276-1.2467-7.255.6601-8.134 7.9208 1.539 14.0814 1.539 14.0814s-10.626-4.4738-14.363 5.3539 5.789 12.0279 5.789 12.0279-13.044.66-9.233 16.355c1.905 7.7741 11.358 8.4341 11.358 8.4341s-10.479 4.7669-5.789 14.1549 12.751 3.887 12.751 3.887-4.177 2.934-1.246 8.948c1.539 3.079 6.082 3.74 10.406 2.933-.366 1.761-.147 3.887 1.026 6.235 4.69 9.387 12.751 3.886 12.751 3.886s0 0 2.93 6.014c2.932 6.015 13.191 5.794 15.243.513 9.893-25.449 11.505-43.8572 11.505-43.8572s-15.242.5134-27.553.88c3.81-14.008 4.616-22.8823 4.616-22.8823s-2.198.0734-5.716.22c9.38-5.2804 14.437-9.1675 14.437-9.1675s-7.475-7.5541-14.949-15.1082c18.1 4.1071 29.971 4.1804 29.971 4.1804s-1.831-15.9883-3.151-28.3829c14.07 17.9685 25.941 27.1361 25.941 27.1361s3.151-5.3538 7.108-11.9545c-1.319 14.7414-.513 23.8357-.513 23.8357s19.053-4.107 31.512-6.7473c12.457-2.6403 17.953-7.1141 16.048-14.9616z" fill="#000"/><path d="m326.39 69.9649s4.471-3.0803 3.444-9.6809c-1.465-9.3144-11.578-8.581-15.901-5.1339-21.325 17.015-31.95 32.1966-31.95 32.1966s6.961 3.7403 14.949 7.9941c-10.186 3.0803-16.635 5.9402-18.394 6.8202-1.611-.733-2.491-1.173-2.491-1.173s-5.276 18.776-8.72 31.096c-3.445 12.249-3.224 16.136 4.543 18.042 7.768 1.98 11.505-8.36 11.505-8.36s1.392 11.441 11.725 9.828c10.405-1.615 7.548-11.002 7.548-11.002s0 0 3.517-.514c.953.147 1.979-.073 3.005-.439h.073c6.596-1.027 9.453-10.855 5.129-14.375-.073-.073-.146-.147-.219-.22-.294-.807-.587-1.247-.587-1.247s9.527 6.528 15.097-2.347c5.641-8.874-3.299-12.908-3.299-12.908s0 0 3.591-5.647c2.932-4.6206-.146-11.2213-4.397-12.9814-.732-.5867-1.172-.8801-1.172-.8801s11.431 1.1734 12.091-9.3876c.659-10.4144-9.087-9.681-9.087-9.681z" fill="#000"/><path d="m302.506 112.282c3.81.807 7.547 3.521 7.914 7.701.367 3.52-.952 7.261-3.957 9.241-4.764 3.08-11.872 1.394-13.41-4.474-.367-1.32-2.419-.806-2.052.587 1.978 7.701 11.651 9.755 17.513 5.061 3.298-2.64 4.837-7.482 4.031-11.662s-5.276-8.581-9.746-8.288c-1.026 0-1.393 1.614-.293 1.834z" fill="#ffdd6c"/><path d="m263.592 144.552c19.932.587 27.7 3.593 37.226 30.289 9.527 26.697 18.394 43.345 18.394 43.345l-65.88 39.164s-25.135-45.032-16.927-75.761c8.207-30.73 21.545-37.184 27.187-37.037z" fill="#ffdd6c"/><path d="m269.895 202.639s10.259 14.741 15.241 20.829c4.983 6.087 9.747 9.167 9.747 9.167l11.578-6.82z" fill="#296cce"/><path d="m263.077 142.13c26.309 5.721 22.864 127.246 22.864 127.246l-2.492 51.559-154.328.88s41.257-148.955 73.866-174.258c32.61-25.303 60.09-5.427 60.09-5.427z" fill="#ffdd6c"/><path d="m213.76 169.999c-.44-33.296-40.891-32.49-76.212 37.037-33.929 66.814 16.341 94.243 36.054 94.757 51.223 1.393 72.987-75.834 72.987-75.834l6.669-50.166s-21.545-2.493-59.431 55.886c-22.424 34.617 20.225-36.303 19.933-61.68z" fill="#7c6746"/><path d="m165.907 157.901c-4.837 4.987-10.333 13.275-16.855 21.562-3.591 4.547-8.134 12.101-8.134 12.101l59.21 27.576s10.993-23.909 18.028-36.743c7.035-12.836 7.914-25.156-11.872-35.717-21.911-11.662-40.377 11.221-40.377 11.221z" fill="#ffdd6c"/><path d="m339.438 185.402s-40.378-56.62-74.527-9.755c-29.532 40.558 79.656 187.239 79.656 187.239s45.434-81.408 61.556-135.901c14.656-49.651-18.833-105.096-66.685-41.583z" fill="#fb8071"/><path d="m252.084 172.934c6.961-3.594 9.747-4.034 17.441-5.061 6.522-.88 22.277 3.594 19.052 8.288-2.784 4.107-12.97 1.613-16.927 2.127-3.957.44-7.108 3.446-7.108 3.446s5.643-2.86 12.091-2.493c6.449.367 13.924 1.98 12.824 5.647-1.465 4.767-5.643 3.814-13.264 4.107-5.496.147-10.113 3.668-10.113 3.668s2.565-2.567 10.846-2.935c6.522-.292 14.729-.586 13.483 5.721-.439 2.421-5.422 3.374-14.949 4.254-4.836.44-7.913 3.08-7.913 3.08s6.228-2.273 14.508-1.613c5.424.367 8.281 2.2 7.915 4.694-.44 2.493-4.397 3.667-12.091 4.621-12.385 1.539-26.748 8.433-34.076 24.569-6.009 13.201-8.866 10.12-8.866 10.12s-13.851-5.94-15.975-20.095c-2.126-14.155-1.613-21.269 3.37-29.263 4.984-7.995 22.79-19.289 29.752-22.882z" fill="#7c6746"/><path d="m275.83 130.544-13.118 20.315s-3.078 5.134-13.116 2.127c-12.751-3.74-25.063-10.341-21.692-16.062 13.117-22.516 16.415-28.382 16.415-28.382z" fill="#7c6746"/><path d="m302.431 41.0682s20.885 38.1372 8.281 67.5468c-12.678 29.41-42.209 27.649-54.447 21.269-12.238-6.381-30.191-17.895-33.929-33.2236-3.737-15.3282-7.254-56.3257 27.407-65.2732s44.261 1.6135 52.688 9.681z" fill="#7c6746"/><path d="m314.082 53.3899c-.146-.1466-.366-.2933-.513-.5134-2.271-7.7007-16.268-22.3689-32.096-27.356-15.609-4.8405-33.05-5.7206-53.495 11.4411-20.446 17.1617-13.997 47.8916-8.134 59.9927 5.789 12.1747 18.466 21.4157 18.466 21.4157l-.879-10.268s-4.03 0-8.427-3.227-6.083-10.781-4.104-16.2082c2.491-6.8207 13.557-5.8672 13.557-5.8672s2.052 15.7683 6.888 17.3084c4.764 1.54 5.204-4.0337 6.156-15.0349.44-5.1338 2.711-9.0209 5.056-11.6611-.367 1.9068-.146 3.3736.806 4.0337 7.108 4.7672 15.316-12.2479 15.316-12.2479s1.686 16.2817 7.621 17.6751c5.935 1.4668 7.255-13.1279 7.255-13.1279s7.182 15.1082 13.703 15.0348c6.522-.0734 3.591-11.4412 3.591-11.4412s8.428 14.0081 14.876 8.2875c6.449-5.7205-5.643-28.2362-5.643-28.2362z" fill="#000"/><path d="m234.938 91.9668s-5.422.0001-5.422 3.5204c0 4.9138 5.422 4.5468 5.422 4.5468" stroke="#000" stroke-linecap="round" stroke-linejoin="round" stroke-miterlimit="10" stroke-width="2"/><path d="m278.25 97.9793c1.376 0 2.492-1.1164 2.492-2.4936 0-1.3771-1.116-2.4935-2.492-2.4935-1.377 0-2.492 1.1164-2.492 2.4935 0 1.3772 1.115 2.4936 2.492 2.4936z" fill="#000"/><path d="m306.461 98.4941c1.376 0 2.491-1.1165 2.491-2.4937 0-1.3771-1.115-2.4936-2.491-2.4936-1.377 0-2.492 1.1165-2.492 2.4936 0 1.3772 1.115 2.4937 2.492 2.4937z" fill="#000"/><path d="m286.091 83.7528c-.66 2.4936-9.087 0-13.778 1.6869-4.689 1.6135-5.202-2.347 0-3.8138 5.204-1.5401 14.73-1.1735 13.778 2.1269z" fill="#000"/><path d="m317.527 85.9539c-1.171 2.3469-8.94-1.7602-13.849-1.0268-4.91.7334-4.617-3.3004.733-3.7403 5.349-.5134 14.583 1.6868 13.116 4.7671z" fill="#000"/><path d="m296.422 97.9087s2.711 7.5543-2.052 10.6343c-4.031 2.641-6.229-.88-6.229-.88" stroke="#000" stroke-linecap="round" stroke-linejoin="round" stroke-miterlimit="10" stroke-width="2.5"/><path d="m234.28 105.094c3.884 2.64 7.621 5.794 7.695 11.001.073 4.988-4.471 10.048-9.673 8.948-5.057-1.027-8.061-5.941-7.182-10.928.366-1.834 1.1-3.374 2.492-4.621.879-.806 1.979-1.173 2.711-2.053.513-.66.293-1.98-.806-1.907-4.47.44-7.035 6.16-7.181 9.974-.22 6.014 4.47 11.735 10.625 12.101 5.57.367 10.186-4.253 10.992-9.534.88-6.014-3.444-12.468-9.16-14.448-.806-.293-1.246.954-.513 1.467z" fill="#ffdd6c"/><path d="m271.869 110.228s-1.832 6.014 3.518 10.414c5.349 4.4 13.19 1.834 13.19 1.834z" fill="#fff"/><path d="m382.674 246.496c-1.905 4.033 2.346 6.526 5.936 9.607-3.517-2.641-7.035-3.594-8.5-.514-1.319 2.714.293 4.768 2.564 6.821-2.491-1.173-4.689-1.1-5.789 1.173-1.611 3.448 1.246 5.794 4.324 8.361-2.492-1.466-4.764-1.687-5.789.514-2.345 4.913 6.082 7.261 8.281 12.028 2.271 4.767 6.008 4.18 6.375-.66.073-.734-.146-1.688-.586-2.641 2.051 1.027 4.03-.586 4.543-4.253.146-.954-.146-2.201-.733-3.521 1.906.514 3.591-1.026 4.031-4.474.146-1.32-.44-3.006-1.539-4.84 1.979.513 3.811-1.174 4.103-4.254.587-5.94-13.85-20.462-17.221-13.347z" fill="#7c6746"/><path d="m88.4481 307.368-29.6786 89.256 72.3275-87.496z" fill="#2a56b6"/><path d="m538.213 472.098-22.076-119.157-89.809 107.135v15.473z" fill="#e56e65" opacity=".6"/><path d="m516.139 352.941-99.819-1.67v109.084h99.819z" fill="#ffdd6c"/><path d="m474.581 334.151-15.755-4.151-12.431 47.252 15.755 4.152z" fill="#fb8071" opacity=".38"/><path d="m462.14 385.39c-11.455 1.613-21.409 10.184-23.967 21.649-2.614 11.687 3.281 22.54 13.513 28.161 10.287 5.621 22.799 5.844 31.809-2.282 8.341-7.513 10.954-19.368 6.616-29.663-5.06-12.133-18.35-20.871-31.53-17.086-1.724.5-1.001 3.172.723 2.671 10.733-3.061 21.521 3.227 26.86 12.578 5.004 8.793 4.281 19.59-2.392 27.326-7.284 8.349-18.128 9.628-28.083 5.343-9.342-4.063-16.182-12.634-15.292-23.208 1.001-11.966 10.955-21.149 22.522-22.763 1.723-.278.945-2.949-.779-2.726z" fill="#2a56b6"/><path d="m451.238 417.112c1.779 5.732 8.119 8.404 13.735 8.683 6.117.278 12.178-2.227 16.238-6.791 1.168-1.336-.778-3.283-1.946-1.948-3.225 3.674-7.785 5.844-12.735 6.011-4.726.167-11.01-1.669-12.568-6.623-.556-1.781-3.225-1.057-2.724.668z" fill="#2a56b6"/><path d="m459.69 403.31c-.222 2.95-.444 5.955-.667 8.905-.111 1.781 2.67 1.781 2.78 0 .223-2.95.446-5.955.668-8.905.167-1.781-2.614-1.726-2.781 0z" fill="#2a56b6"/><path d="m470.705 402.531c-.389 2.949-.833 5.843-1.223 8.793-.222 1.726 2.447 2.505 2.67.723.389-2.949.833-5.843 1.223-8.793.278-1.781-2.391-2.504-2.67-.723z" fill="#2a56b6"/><path d="m1039.72 145.398-32.91-102.2378-61.783 97.4518 1.669 12.633z" fill="#e56e65" opacity=".6"/><path d="m1006.81 43.1602-81.81 9.5726 11.85 89.1582 81.63-10.852z" fill="#ffdd6c"/><path d="m982.397 16h-19.631v53.9851h19.631z" fill="#fb8071" opacity=".38"/><path d="m1013.67 206.755h-16.186v-1.058c0-4.452 3.616-8.07 8.066-8.07s8.06 3.618 8.06 8.07v1.058z" fill="#2b67bf"/><path d="m1005.55 197.127c2.3 0 4.17-1.87 4.17-4.175s-1.87-4.174-4.17-4.174c-2.31 0-4.17 1.869-4.17 4.174s1.86 4.175 4.17 4.175z" fill="#2b67bf"/><path d="m1130.18 93.3284c19.18 8.8486 3.34 31.7226-13.35 23.3746-16.68-8.348-8.33-33.3929 13.35-23.3746z" fill="#fb8071"/><path d="m1109.14 64.4704c12.18 5.6213 2.11 20.2031-8.51 14.8603-10.62-5.2875-5.33-21.2044 8.51-14.8603z" fill="#ffdd6c"/><path d="m943.856 132.262c1.003-5.064 2.785-9.906 5.503-14.358 2.232-3.618 7.566-12.579 12.403-7.904 3.835 3.729 4.06 10.463 2.616 15.305-.506 1.558-2.841 7.903-4.837 4.564-1.229-2.115-.507-5.065-.113-7.235 1.781-9.962 5.953-19.424 12.009-27.4936 3.113-4.1185 6.788-8.07 11.072-11.0754 2.11-1.5026 4.444-2.7826 6.947-3.6175 2.391-.7791 8.231-2.2819 9.563.9461 1.001 2.3932.168 6.3447-.057 8.8491-.328 3.3393-.89 6.6786-1.668 9.9063-1.163 4.954-2.775 13.97-8.279 15.918.554.334 1.163.667 1.716.946-2.662-11.076 2.672-21.7613 8.953-30.5548 6.616-9.2387 14.576-17.5312 23.026-25.0447 1.33-1.1686-.61-3.1723-1.94-1.9478-9.12 8.0699-17.69 17.0859-24.583 27.2152-6.234 9.1273-10.847 19.9801-8.118 31.1111.168.724.993 1.224 1.725.946 6.281-2.17 8.222-10.074 9.731-15.806.935-3.5062 1.615-7.0125 2.055-10.6301.45-3.5618 1.33-8.1812.22-11.6874-1.891-6.0107-10.788-3.8959-15.016-2.1149-6.562 2.7828-11.897 7.9586-16.294 13.4685-4.275 5.3428-7.724 11.3539-10.228 17.7539-1.331 3.339-2.334 6.846-3.056 10.352-.562 2.782-1.341 5.9-.778 8.794.384 1.947 1.388 4.229 3.497 4.786 2.616.667 4.453-1.559 5.512-3.562 3-5.454 3.553-12.745.835-18.478-1.285-2.671-3.619-5.343-6.731-5.788-3.338-.501-5.729 1.948-7.791 4.23-5.391 6.066-8.953 13.524-10.566 21.483-.328 1.781 2.335 2.504 2.672.723z" fill="#2a56b6"/></g></svg>