<?xml version="1.0" encoding="UTF-8"?> <svg xmlns="http://www.w3.org/2000/svg" width="182" height="44" viewBox="0 0 182 44" fill="none"><path d="M70.4794 12.2011C70.4794 11.7659 70.153 11.4395 69.7178 11.4395H55.7616C55.3264 11.4395 55 11.7659 55 12.2011V14.3813C55 14.8165 55.3264 15.143 55.7616 15.143H60.3397V25.9354C60.3397 26.3748 60.6661 26.7012 61.1055 26.7012H64.3738C64.8091 26.7012 65.1355 26.3748 65.1355 25.9354V15.143H69.7178C70.153 15.143 70.4794 14.8165 70.4794 14.3813V12.2011Z" fill="url(#paint0_linear_1221_15281)"></path><path d="M85.3034 19.9429C85.3034 19.9429 88.2453 19.2859 88.2453 16.4528C88.2453 13.7285 85.9562 11.4395 81.1605 11.4395H73.2011C72.7659 11.4395 72.4395 11.7659 72.4395 12.2011V25.9354C72.4395 26.3748 72.7659 26.7012 73.2011 26.7012H76.4736C76.9088 26.7012 77.2352 26.3748 77.2352 25.9354V21.4661H80.0683C81.2693 21.4661 81.6836 21.9013 82.0309 22.5583L83.8847 25.9354C84.1233 26.3748 84.4288 26.7012 85.3034 26.7012H88.6805C89.2287 26.7012 89.4002 26.2618 89.2287 25.9354L87.3748 22.5583C86.2826 20.5957 85.3034 20.1605 85.3034 20.1605V19.9429ZM77.2352 17.9802V14.9253H81.1605C82.5749 14.9253 83.2319 15.5824 83.2319 16.4528C83.2319 17.3232 82.5749 17.9802 81.1605 17.9802H77.2352Z" fill="url(#paint1_linear_1221_15281)"></path><path d="M100.851 12.2011C100.851 11.7659 100.524 11.4395 100.089 11.4395H91.1503C90.7151 11.4395 90.3887 11.7659 90.3887 12.2011V14.3813C90.3887 14.8165 90.7151 15.143 91.1503 15.143H93.2217V22.9935H91.1503C90.7151 22.9935 90.3887 23.32 90.3887 23.7552V25.9354C90.3887 26.3748 90.7151 26.7012 91.1503 26.7012H100.089C100.524 26.7012 100.851 26.3748 100.851 25.9354V23.7552C100.851 23.32 100.524 22.9935 100.089 22.9935H98.0175V15.143H100.089C100.524 15.143 100.851 14.8165 100.851 14.3813V12.2011Z" fill="url(#paint2_linear_1221_15281)"></path><path d="M107.72 15.9087C107.72 15.2517 108.373 14.5989 110.336 14.5989C111.972 14.5989 112.646 15.2517 112.842 15.5823C113.148 16.1263 113.495 16.4527 114.152 16.4527H116.877C117.421 16.4527 117.747 16.1263 117.747 15.5823C117.747 13.402 115.349 11 110.336 11C104.992 11 102.703 13.2932 102.703 15.9087C102.703 22.0143 113.278 19.9428 113.278 22.1231C113.278 22.7759 112.516 23.5375 110.336 23.5375C108.156 23.5375 107.499 22.8847 107.172 22.3407C106.867 21.8176 106.519 21.4661 105.866 21.4661H103.138C102.594 21.4661 102.268 21.7925 102.268 22.3407C102.268 24.7385 104.665 27.1364 110.336 27.1364C115.893 27.1364 118.291 24.7385 118.291 22.1231C118.291 16.0175 107.72 18.089 107.72 15.9087Z" fill="url(#paint3_linear_1221_15281)"></path><path d="M135.407 12.2011C135.407 11.7659 135.08 11.4395 134.645 11.4395H121.346C120.911 11.4395 120.58 11.7659 120.58 12.2011V25.9354C120.58 26.3748 120.911 26.7012 121.346 26.7012H134.645C135.08 26.7012 135.407 26.3748 135.407 25.9354V23.7552C135.407 23.32 135.08 22.9935 134.645 22.9935H125.38V20.8133H132.247C132.682 20.8133 133.009 20.4869 133.009 20.0517V17.8714C133.009 17.432 132.682 17.1056 132.247 17.1056H125.38V15.143H134.645C135.08 15.143 135.407 14.8165 135.407 14.3813V12.2011Z" fill="url(#paint4_linear_1221_15281)"></path><path d="M149.6 26.7012C150.252 26.7012 150.667 26.2618 150.801 25.9354L153.722 18.7418H153.939V25.9354C153.939 26.3748 154.266 26.7012 154.701 26.7012H157.973C158.408 26.7012 158.735 26.3748 158.735 25.9354V12.2011C158.735 11.7659 158.408 11.4395 157.973 11.4395H153.395C152.738 11.4395 152.324 11.8747 152.194 12.2011L148.378 21.4661H148.16L144.343 12.2011C144.214 11.8747 143.799 11.4395 143.147 11.4395H138.569C138.133 11.4395 137.803 11.7659 137.803 12.2011V25.9354C137.803 26.3748 138.133 26.7012 138.569 26.7012H141.837C142.272 26.7012 142.603 26.3748 142.603 25.9354V18.7418H142.82L145.762 25.9354C145.892 26.2618 146.306 26.7012 146.963 26.7012H149.6Z" fill="url(#paint5_linear_1221_15281)"></path><path d="M171.599 12.2011C171.599 11.7659 171.272 11.4395 170.837 11.4395H161.894C161.459 11.4395 161.133 11.7659 161.133 12.2011V14.3813C161.133 14.8165 161.459 15.143 161.894 15.143H163.966V22.9935H161.894C161.459 22.9935 161.133 23.32 161.133 23.7552V25.9354C161.133 26.3748 161.459 26.7012 161.894 26.7012H170.837C171.272 26.7012 171.599 26.3748 171.599 25.9354V23.7552C171.599 23.32 171.272 22.9935 170.837 22.9935H168.766V15.143H170.837C171.272 15.143 171.599 14.8165 171.599 14.3813V12.2011Z" fill="url(#paint6_linear_1221_15281)"></path><path fill-rule="evenodd" clip-rule="evenodd" d="M32.2538 41C32.2538 41 12.1208 41 11.0603 41C9.99968 41 10.1321 40.3494 10.2431 40.0796C10.2674 40.0215 11.2688 38.2218 12.8219 35.4406H19.8875C24.0093 35.4406 28.1315 35.4406 32.2538 35.4406C36.3761 35.4406 40.4984 35.4406 44.6201 35.4406C42.424 31.5181 40.18 27.6044 37.9963 23.7034C36.0825 20.2844 34.1682 16.8654 32.2538 13.4463C30.3395 16.8654 28.4251 20.2844 26.5114 23.7034C25.1538 26.1288 23.7726 28.5595 22.3942 30.9941H15.3071C21.5021 19.9154 31.1859 2.63249 31.2671 2.47803C31.6029 1.84066 32.9047 1.84066 33.2406 2.47803C33.3601 2.70434 54.1535 39.8103 54.2645 40.0796C54.3755 40.3494 54.508 41 53.4474 41C52.3868 41 32.2538 41 32.2538 41Z" fill="url(#paint7_linear_1221_15281)"></path><path d="M30.1132 29.6843H34.3897C34.4776 29.6843 34.5485 29.6204 34.5485 29.5411V25.6854C34.5485 25.6062 34.4776 25.5422 34.3897 25.5422H30.1132C30.0252 25.5422 29.9544 25.6062 29.9544 25.6854V29.5411C29.9544 29.6204 30.0252 29.6843 30.1132 29.6843ZM30.7863 28.5796C30.7863 28.5236 30.8368 28.478 30.8989 28.478C30.961 28.478 31.0116 28.5236 31.0116 28.5796C31.0116 28.635 30.961 28.6806 30.8989 28.6806C30.8368 28.6806 30.7863 28.6355 30.7863 28.5796ZM32.5896 27.9018C32.5896 27.8463 32.6402 27.8008 32.7023 27.8008C32.7638 27.8008 32.8144 27.8458 32.8144 27.9018C32.8144 27.9578 32.7644 28.0034 32.7023 28.0034C32.6402 28.0034 32.5896 27.9578 32.5896 27.9018ZM33.7161 26.6465C33.7161 26.7025 33.6661 26.748 33.604 26.748C33.5419 26.748 33.4913 26.7025 33.4913 26.6465C33.4913 26.591 33.5419 26.5454 33.604 26.5454C33.6655 26.5454 33.7161 26.5905 33.7161 26.6465ZM31.9127 27.3242C31.9127 27.3797 31.8627 27.4253 31.8006 27.4253C31.7385 27.4253 31.688 27.3802 31.688 27.3242C31.688 27.2682 31.7385 27.2226 31.8006 27.2226C31.8622 27.2226 31.9127 27.2682 31.9127 27.3242ZM30.272 25.828H31.6418V26.964C31.483 27.021 31.3704 27.1607 31.3704 27.3242C31.3704 27.5377 31.5633 27.7116 31.8006 27.7116C32.038 27.7116 32.2303 27.5377 32.2303 27.3242C32.2303 27.1612 32.1177 27.0215 31.9594 26.964V25.828H32.5435V26.8263C32.5435 26.8644 32.56 26.9006 32.5902 26.9274L33.4452 27.6982V28.153C33.2864 28.21 33.1738 28.3497 33.1738 28.5131C33.1738 28.7267 33.3666 28.9006 33.604 28.9006C33.8414 28.9006 34.0337 28.7267 34.0337 28.5131C34.0337 28.3502 33.9211 28.2105 33.7628 28.153V27.6388C33.7628 27.6006 33.7463 27.5644 33.7161 27.5377L32.8611 26.7668V25.8276H33.4452V26.2863C33.2864 26.3433 33.1738 26.483 33.1738 26.646C33.1738 26.86 33.3666 27.0339 33.604 27.0339C33.8414 27.0339 34.0337 26.86 34.0337 26.646C34.0337 26.483 33.9211 26.3433 33.7628 26.2863V25.8276H34.231V29.397H32.8611V28.2611C33.0194 28.2041 33.132 28.0644 33.132 27.9009C33.132 27.6874 32.9391 27.5135 32.7023 27.5135C32.4655 27.5135 32.2721 27.6874 32.2721 27.9009C32.2721 28.0639 32.3847 28.2041 32.5435 28.2611V29.397H31.9594V28.3988C31.9594 28.3606 31.9429 28.3245 31.9127 28.2977L31.0577 27.5269V27.0721C31.2165 27.0151 31.3292 26.8754 31.3292 26.7119C31.3292 26.4984 31.1363 26.3245 30.8989 26.3245C30.6615 26.3245 30.4687 26.4984 30.4687 26.7119C30.4687 26.8749 30.5813 27.0151 30.7401 27.0721V27.5863C30.7401 27.6245 30.7566 27.6606 30.7868 27.6874L31.6418 28.4582V29.3975H31.0577V28.9388C31.2165 28.8818 31.3292 28.7421 31.3292 28.5791C31.3292 28.3651 31.1363 28.1912 30.8989 28.1912C30.6615 28.1912 30.4687 28.3651 30.4687 28.5791C30.4687 28.7421 30.5813 28.8818 30.7401 28.9388V29.3975H30.272V25.828ZM33.7161 28.5142C33.7161 28.5697 33.6661 28.6153 33.604 28.6153C33.5419 28.6153 33.4913 28.5702 33.4913 28.5142C33.4913 28.4582 33.5419 28.4126 33.604 28.4126C33.6655 28.4126 33.7161 28.4582 33.7161 28.5142ZM30.7868 26.7119C30.7868 26.6564 30.8374 26.6108 30.8995 26.6108C30.9615 26.6108 31.0121 26.6559 31.0121 26.7119C31.0121 26.7679 30.9615 26.8134 30.8995 26.8134C30.8374 26.8134 30.7868 26.7679 30.7868 26.7119ZM28.0202 29.509C28.0768 29.509 28.1295 29.4818 28.1575 29.4372L28.4592 28.966H29.1499V29.2851H28.8032C28.7153 29.2851 28.6444 29.349 28.6444 29.4282C28.6444 29.5075 28.7153 29.5714 28.8032 29.5714H29.1499V29.8538C29.1499 29.892 29.1664 29.9281 29.1966 29.9549L29.6538 30.3671C29.6835 30.3938 29.7241 30.4092 29.7659 30.4092H30.0791V30.7218C30.0791 30.801 30.15 30.8649 30.2379 30.8649C30.3258 30.8649 30.3967 30.801 30.3967 30.7218V30.4092H30.7505V31.0314L30.228 31.3039C30.1791 31.3296 30.1489 31.3767 30.1489 31.4277V31.8453C29.9626 31.9048 29.828 32.0648 29.828 32.2531C29.828 32.4918 30.0434 32.6856 30.3077 32.6856C30.572 32.6856 30.7874 32.4914 30.7874 32.2531C30.7874 32.0648 30.6533 31.9048 30.4665 31.8453V31.5105L30.989 31.238C31.038 31.2122 31.0682 31.1652 31.0682 31.1141V30.4092H31.4215V31.0017C31.4215 31.0809 31.4924 31.1448 31.5803 31.1448C31.6682 31.1448 31.7391 31.0809 31.7391 31.0017V30.4092H32.0929V31.7324L31.8495 31.8954C31.7726 31.8484 31.6803 31.8206 31.5808 31.8206C31.316 31.8206 31.1011 32.0148 31.1011 32.2531C31.1011 32.4914 31.3165 32.6856 31.5808 32.6856C31.8451 32.6856 32.0605 32.4914 32.0605 32.2531C32.0605 32.2085 32.0528 32.1654 32.0391 32.1253L32.3468 31.9197C32.3869 31.8925 32.4111 31.8499 32.4111 31.8048V30.4097H32.7644V31.2588C32.7644 31.3381 32.8353 31.402 32.9232 31.402C33.0111 31.402 33.082 31.3381 33.082 31.2588V30.4097H33.4359V31.1147C33.4359 31.1657 33.4661 31.2128 33.515 31.2385L34.037 31.511V31.8459C33.8502 31.9054 33.7161 32.0654 33.7161 32.2536C33.7161 32.4924 33.9315 32.6861 34.1958 32.6861C34.4601 32.6861 34.6755 32.4919 34.6755 32.2536C34.6755 32.0654 34.5414 31.9053 34.3546 31.8459V31.4283C34.3546 31.3772 34.3244 31.3302 34.2755 31.3044L33.7535 31.0319V30.4092H34.1068V30.7218C34.1068 30.8011 34.1777 30.865 34.2656 30.865C34.3535 30.865 34.4244 30.8011 34.4244 30.7218V30.4092H34.7382C34.7805 30.4092 34.8206 30.3944 34.8503 30.3671L35.3074 29.9549C35.3371 29.9282 35.3541 29.8915 35.3541 29.8539V29.5715H35.7009C35.7888 29.5715 35.8597 29.5076 35.8597 29.4283C35.8597 29.349 35.7888 29.2851 35.7009 29.2851H35.3541V28.9661H36.0443L36.3459 29.4372C36.3745 29.4818 36.4267 29.5091 36.4833 29.5091H36.9471C37.013 29.6775 37.1905 29.7984 37.3993 29.7984C37.6641 29.7984 37.879 29.6042 37.879 29.3659C37.879 29.1276 37.6636 28.9334 37.3993 28.9334C37.1905 28.9334 37.013 29.0542 36.9471 29.2227H36.5751L36.2734 28.7516C36.2449 28.707 36.1926 28.6797 36.1361 28.6797H35.3541V28.3607H36.0113C36.0992 28.3607 36.1701 28.2968 36.1701 28.2175C36.1701 28.1382 36.0992 28.0743 36.0113 28.0743H35.3541V27.7558H36.8213L37.0015 27.9753C36.9499 28.0446 36.9191 28.1278 36.9191 28.217C36.9191 28.4558 37.1345 28.6495 37.3988 28.6495C37.6631 28.6495 37.8785 28.4553 37.8785 28.217C37.8785 27.9787 37.6631 27.7845 37.3988 27.7845C37.3494 27.7845 37.301 27.7915 37.2559 27.8038L37.0285 27.5269C36.9982 27.4902 36.951 27.4689 36.901 27.4689H35.3536V27.1499H36.2943C36.3823 27.1499 36.4531 27.086 36.4531 27.0067C36.4531 26.9275 36.3823 26.8636 36.2943 26.8636H35.3536V26.545H36.1355C36.1921 26.545 36.2449 26.5178 36.2729 26.4732L36.5746 26.002H36.9466C37.0125 26.1705 37.19 26.2914 37.3988 26.2914C37.6636 26.2914 37.8785 26.0972 37.8785 25.8589C37.8785 25.6206 37.6631 25.4264 37.3988 25.4264C37.19 25.4264 37.0125 25.5472 36.9466 25.7157H36.4828C36.4262 25.7157 36.3735 25.7429 36.3454 25.7875L36.0438 26.2586H35.3536V25.9396H35.7004C35.7883 25.9396 35.8592 25.8757 35.8592 25.7964C35.8592 25.7172 35.7883 25.6533 35.7004 25.6533H35.3536V25.3709C35.3536 25.3327 35.3372 25.2966 35.3069 25.2698L34.8498 24.8576C34.8201 24.8309 34.7794 24.8155 34.7377 24.8155H34.4239V24.5029C34.4239 24.4237 34.353 24.3597 34.2651 24.3597C34.1772 24.3597 34.1063 24.4237 34.1063 24.5029V24.8155H33.753V24.1933L34.2755 23.9208C34.3244 23.8951 34.3547 23.848 34.3547 23.797V23.3793C34.5409 23.3199 34.6756 23.1599 34.6756 22.9716C34.6756 22.7328 34.4602 22.5391 34.1959 22.5391C33.9316 22.5391 33.7162 22.7333 33.7162 22.9716C33.7162 23.1599 33.8502 23.3199 34.037 23.3793V23.7142L33.5145 23.9867C33.4656 24.0125 33.4354 24.0595 33.4354 24.1106V24.8155H33.0815V24.223C33.0815 24.1437 33.0106 24.0798 32.9227 24.0798C32.8348 24.0798 32.7639 24.1437 32.7639 24.223V24.8155H32.4106V23.4922L32.654 23.3297C32.7309 23.3768 32.8233 23.4041 32.9227 23.4041C33.1876 23.4041 33.4024 23.2099 33.4024 22.9716C33.4024 22.7333 33.187 22.5391 32.9227 22.5391C32.6584 22.5391 32.443 22.7333 32.443 22.9716C32.443 23.0161 32.4507 23.0592 32.4644 23.0999L32.1573 23.3055C32.1172 23.3327 32.093 23.3753 32.093 23.4204V24.8155H31.7391V23.9663C31.7391 23.8871 31.6682 23.8232 31.5803 23.8232C31.4924 23.8232 31.4215 23.8871 31.4215 23.9663V24.8155H31.0682V24.1105C31.0682 24.0595 31.038 24.0119 30.9891 23.9866L30.4665 23.7142V23.3793C30.6534 23.3198 30.7874 23.1598 30.7874 22.9716C30.7874 22.7328 30.572 22.5391 30.3077 22.5391C30.0434 22.5391 29.828 22.7333 29.828 22.9716C29.828 23.1598 29.9621 23.3198 30.1489 23.3793V23.7969C30.1489 23.8479 30.1791 23.8955 30.228 23.9208L30.7506 24.1932V24.8155H30.3967V24.5029C30.3967 24.4236 30.3258 24.3597 30.2379 24.3597C30.15 24.3597 30.0791 24.4236 30.0791 24.5029V24.8155H29.7659C29.7236 24.8155 29.6835 24.8303 29.6538 24.8576L29.1967 25.2698C29.167 25.2965 29.1499 25.3332 29.1499 25.3708V25.6532H28.8032C28.7153 25.6532 28.6444 25.7171 28.6444 25.7964C28.6444 25.8756 28.7153 25.9396 28.8032 25.9396H29.1499V26.2586H28.4592L28.1576 25.7875C28.129 25.7429 28.0768 25.7156 28.0202 25.7156H27.557C27.4911 25.5472 27.3136 25.4263 27.1048 25.4263C26.8399 25.4263 26.6251 25.6205 26.6251 25.8588C26.6251 26.0971 26.8405 26.2913 27.1048 26.2913C27.3136 26.2913 27.4911 26.1704 27.557 26.002H27.9284L28.2301 26.4731C28.2587 26.5177 28.3109 26.545 28.3675 26.545H29.1499V26.864H28.4927C28.4048 26.864 28.3339 26.9279 28.3339 27.0072C28.3339 27.0864 28.4048 27.1503 28.4927 27.1503H29.1499V27.4689H27.6822L27.502 27.2494C27.5542 27.1801 27.5844 27.0968 27.5844 27.0072C27.5844 26.7684 27.369 26.5747 27.1047 26.5747C26.8404 26.5747 26.625 26.7689 26.625 27.0072C26.625 27.2455 26.8404 27.4397 27.1047 27.4397C27.1542 27.4397 27.202 27.4327 27.247 27.4203L27.4751 27.6973C27.5053 27.7334 27.5525 27.7552 27.6025 27.7552H29.1499V28.0743H28.2081C28.1201 28.0743 28.0493 28.1382 28.0493 28.2174C28.0493 28.2967 28.1201 28.3606 28.2081 28.3606H29.1499V28.6792H28.3674C28.3108 28.6792 28.2581 28.7064 28.23 28.751L27.9284 29.2221H27.5569C27.491 29.0542 27.3135 28.9328 27.1047 28.9328C26.8399 28.9328 26.625 29.127 26.625 29.3653C26.625 29.6036 26.8404 29.7978 27.1047 29.7978C27.3135 29.7978 27.491 29.6769 27.5569 29.5085H28.0202L28.0202 29.509ZM30.3077 32.3997C30.2181 32.3997 30.1456 32.3343 30.1456 32.2536C30.1456 32.1728 30.2181 32.1074 30.3077 32.1074C30.3973 32.1074 30.4698 32.1728 30.4698 32.2536C30.4698 32.3343 30.3973 32.3997 30.3077 32.3997ZM31.5803 32.3997C31.4907 32.3997 31.4182 32.3343 31.4182 32.2536C31.4182 32.1728 31.4907 32.1074 31.5803 32.1074C31.6699 32.1074 31.7424 32.1728 31.7424 32.2536C31.7424 32.3343 31.6699 32.3997 31.5803 32.3997ZM34.1953 32.3997C34.1057 32.3997 34.0332 32.3343 34.0332 32.2536C34.0332 32.1728 34.1058 32.1074 34.1953 32.1074C34.2849 32.1074 34.3574 32.1728 34.3574 32.2536C34.3574 32.3343 34.2849 32.3997 34.1953 32.3997ZM37.3987 29.2197C37.4883 29.2197 37.5608 29.2851 37.5608 29.3659C37.5608 29.4466 37.4883 29.512 37.3987 29.512C37.3092 29.512 37.2366 29.4466 37.2366 29.3659C37.2366 29.2851 37.3092 29.2197 37.3987 29.2197ZM37.5608 28.218C37.5608 28.2988 37.4883 28.3641 37.3987 28.3641C37.3092 28.3641 37.2366 28.2988 37.2366 28.218C37.2366 28.1373 37.3092 28.0719 37.3987 28.0719C37.4883 28.0719 37.5608 28.1373 37.5608 28.218ZM37.3987 25.7142C37.4883 25.7142 37.5608 25.7796 37.5608 25.8604C37.5608 25.9411 37.4883 26.0065 37.3987 26.0065C37.3092 26.0065 37.2366 25.9411 37.2366 25.8604C37.2366 25.7796 37.3092 25.7142 37.3987 25.7142ZM34.1957 22.8264C34.2853 22.8264 34.3578 22.8918 34.3578 22.9726C34.3578 23.0533 34.2853 23.1187 34.1957 23.1187C34.1062 23.1187 34.0336 23.0533 34.0336 22.9726C34.0336 22.8918 34.1062 22.8264 34.1957 22.8264ZM32.9226 22.8264C33.0121 22.8264 33.0847 22.8918 33.0847 22.9726C33.0847 23.0533 33.0121 23.1187 32.9226 23.1187C32.833 23.1187 32.7605 23.0533 32.7605 22.9726C32.7605 22.8918 32.833 22.8264 32.9226 22.8264ZM30.3076 22.8264C30.3971 22.8264 30.4697 22.8918 30.4697 22.9726C30.4697 23.0533 30.3971 23.1187 30.3076 23.1187C30.218 23.1187 30.1455 23.0533 30.1455 22.9726C30.1455 22.8918 30.218 22.8264 30.3076 22.8264ZM27.1046 26.0064C27.015 26.0064 26.9425 25.941 26.9425 25.8603C26.9425 25.7795 27.015 25.7142 27.1046 25.7142C27.1941 25.7142 27.2667 25.7796 27.2667 25.8603C27.2667 25.941 27.1941 26.0064 27.1046 26.0064ZM26.9425 27.0081C26.9425 26.9274 27.015 26.862 27.1046 26.862C27.1941 26.862 27.2667 26.9274 27.2667 27.0081C27.2667 27.0889 27.1941 27.1543 27.1046 27.1543C27.015 27.1543 26.9425 27.0889 26.9425 27.0081ZM29.4673 25.4312L29.8316 25.1028H34.6714L35.0357 25.4312V29.7947L34.6714 30.1232H29.8316L29.4673 29.7947V25.4312ZM27.1045 29.5119C27.015 29.5119 26.9424 29.4465 26.9424 29.3658C26.9424 29.285 27.015 29.2196 27.1045 29.2196C27.1941 29.2196 27.2666 29.285 27.2666 29.3658C27.2666 29.4465 27.1941 29.5119 27.1045 29.5119Z" fill="url(#paint8_linear_1221_15281)"></path><path d="M86.4497 35.8988V31.7517H88.2491V30.7139H83.5957V31.7517H85.4119V35.8988H86.4497Z" fill="url(#paint9_linear_1221_15281)"></path><path d="M93.1657 35.8988V34.861H89.8054V33.8315H92.9063V32.7937H89.8054V31.7517H93.1657V30.7139H88.7676V35.8988H93.1657Z" fill="url(#paint10_linear_1221_15281)"></path><path d="M97.9766 35.8988L98.4871 35.3882V34.3504H97.4577V34.861H94.8715V31.7517H97.4577V32.2706H98.4871V31.2411L97.9766 30.7139H94.3484L93.8379 31.2411V35.3882L94.3484 35.8988H97.9766Z" fill="url(#paint11_linear_1221_15281)"></path><path d="M100.19 35.8988V33.8315H102.776V35.8988H103.806V30.7139H102.776V32.7937H100.19V30.7139H99.1523V35.8988H100.19Z" fill="url(#paint12_linear_1221_15281)"></path><path d="M109.198 35.8988V30.7139H108.165V34.1663L105.583 30.7139H104.545V35.8988H105.583V32.438L108.165 35.8988H109.198Z" fill="url(#paint13_linear_1221_15281)"></path><path d="M110.971 34.861V31.7517H113.557V34.861H110.971ZM114.076 35.8988L114.587 35.3882V31.2411L114.076 30.7139H110.448L109.938 31.2411V35.3882L110.448 35.8988H114.076Z" fill="url(#paint14_linear_1221_15281)"></path><path d="M115.33 30.7139V35.8988H119.728V34.861H116.368V30.7139H115.33Z" fill="url(#paint15_linear_1221_15281)"></path><path d="M121.284 34.861V31.7517H123.87V34.861H121.284ZM124.389 35.8988L124.9 35.3882V31.2411L124.389 30.7139H120.757L120.246 31.2411V35.3882L120.757 35.8988H124.389Z" fill="url(#paint16_linear_1221_15281)"></path><path d="M129.779 35.8988L130.29 35.3882V32.9276H127.959V33.9654H129.26V34.861H126.678V31.7517H129.26V32.2706H130.29V31.2411L129.779 30.7139H126.151L125.641 31.2411V35.3882L126.151 35.8988H129.779Z" fill="url(#paint17_linear_1221_15281)"></path><path d="M132.069 35.8988V30.7139H131.031V35.8988H132.069Z" fill="url(#paint18_linear_1221_15281)"></path><path d="M137.209 35.8988V34.861H133.844V33.8315H136.95V32.7937H133.844V31.7517H137.209V30.7139H132.807V35.8988H137.209Z" fill="url(#paint19_linear_1221_15281)"></path><path d="M142.016 35.8988L142.53 35.3882V33.3084L142.016 32.7895H138.915V31.7517H141.497V32.2706H142.53V31.2411L142.016 30.7139H138.387L137.877 31.2411V33.4632L138.387 33.8315H141.497V34.861H138.915V34.3504H137.877V35.3882L138.387 35.8988H142.016Z" fill="url(#paint20_linear_1221_15281)"></path><defs><linearGradient id="paint0_linear_1221_15281" x1="55" y1="19.0703" x2="70.4794" y2="19.0703" gradientUnits="userSpaceOnUse"><stop stop-color="#CABC28"></stop><stop offset="1" stop-color="#C79D2D"></stop></linearGradient><linearGradient id="paint1_linear_1221_15281" x1="72.4395" y1="19.0703" x2="89.2925" y2="19.0703" gradientUnits="userSpaceOnUse"><stop stop-color="#CABC28"></stop><stop offset="1" stop-color="#C79D2D"></stop></linearGradient><linearGradient id="paint2_linear_1221_15281" x1="90.3887" y1="19.0703" x2="100.851" y2="19.0703" gradientUnits="userSpaceOnUse"><stop stop-color="#CABC28"></stop><stop offset="1" stop-color="#C79D2D"></stop></linearGradient><linearGradient id="paint3_linear_1221_15281" x1="102.268" y1="19.0682" x2="118.291" y2="19.0682" gradientUnits="userSpaceOnUse"><stop stop-color="#CABC28"></stop><stop offset="1" stop-color="#C79D2D"></stop></linearGradient><linearGradient id="paint4_linear_1221_15281" x1="120.58" y1="19.0703" x2="135.407" y2="19.0703" gradientUnits="userSpaceOnUse"><stop stop-color="#CABC28"></stop><stop offset="1" stop-color="#C79D2D"></stop></linearGradient><linearGradient id="paint5_linear_1221_15281" x1="137.803" y1="19.0703" x2="158.735" y2="19.0703" gradientUnits="userSpaceOnUse"><stop stop-color="#CABC28"></stop><stop offset="1" stop-color="#C79D2D"></stop></linearGradient><linearGradient id="paint6_linear_1221_15281" x1="161.133" y1="19.0703" x2="171.599" y2="19.0703" gradientUnits="userSpaceOnUse"><stop stop-color="#CABC28"></stop><stop offset="1" stop-color="#C79D2D"></stop></linearGradient><linearGradient id="paint7_linear_1221_15281" x1="54.3379" y1="21.5" x2="10.1698" y2="21.5" gradientUnits="userSpaceOnUse"><stop stop-color="#CABC28"></stop><stop offset="1" stop-color="#C79D2D"></stop></linearGradient><linearGradient id="paint8_linear_1221_15281" x1="26.625" y1="27.6126" x2="37.879" y2="27.6126" gradientUnits="userSpaceOnUse"><stop stop-color="#CABC28"></stop><stop offset="1" stop-color="#C79D2D"></stop></linearGradient><linearGradient id="paint9_linear_1221_15281" x1="83.5957" y1="33.3063" x2="88.2491" y2="33.3063" gradientUnits="userSpaceOnUse"><stop stop-color="#CABC28"></stop><stop offset="1" stop-color="#C79D2D"></stop></linearGradient><linearGradient id="paint10_linear_1221_15281" x1="88.7676" y1="33.3063" x2="93.1657" y2="33.3063" gradientUnits="userSpaceOnUse"><stop stop-color="#CABC28"></stop><stop offset="1" stop-color="#C79D2D"></stop></linearGradient><linearGradient id="paint11_linear_1221_15281" x1="93.8379" y1="33.3063" x2="98.4871" y2="33.3063" gradientUnits="userSpaceOnUse"><stop stop-color="#CABC28"></stop><stop offset="1" stop-color="#C79D2D"></stop></linearGradient><linearGradient id="paint12_linear_1221_15281" x1="99.1523" y1="33.3063" x2="103.806" y2="33.3063" gradientUnits="userSpaceOnUse"><stop stop-color="#CABC28"></stop><stop offset="1" stop-color="#C79D2D"></stop></linearGradient><linearGradient id="paint13_linear_1221_15281" x1="104.545" y1="33.3063" x2="109.198" y2="33.3063" gradientUnits="userSpaceOnUse"><stop stop-color="#CABC28"></stop><stop offset="1" stop-color="#C79D2D"></stop></linearGradient><linearGradient id="paint14_linear_1221_15281" x1="109.938" y1="33.3063" x2="114.587" y2="33.3063" gradientUnits="userSpaceOnUse"><stop stop-color="#CABC28"></stop><stop offset="1" stop-color="#C79D2D"></stop></linearGradient><linearGradient id="paint15_linear_1221_15281" x1="115.33" y1="33.3063" x2="119.728" y2="33.3063" gradientUnits="userSpaceOnUse"><stop stop-color="#CABC28"></stop><stop offset="1" stop-color="#C79D2D"></stop></linearGradient><linearGradient id="paint16_linear_1221_15281" x1="120.246" y1="33.3063" x2="124.9" y2="33.3063" gradientUnits="userSpaceOnUse"><stop stop-color="#CABC28"></stop><stop offset="1" stop-color="#C79D2D"></stop></linearGradient><linearGradient id="paint17_linear_1221_15281" x1="125.641" y1="33.3063" x2="130.29" y2="33.3063" gradientUnits="userSpaceOnUse"><stop stop-color="#CABC28"></stop><stop offset="1" stop-color="#C79D2D"></stop></linearGradient><linearGradient id="paint18_linear_1221_15281" x1="131.031" y1="33.3063" x2="132.069" y2="33.3063" gradientUnits="userSpaceOnUse"><stop stop-color="#CABC28"></stop><stop offset="1" stop-color="#C79D2D"></stop></linearGradient><linearGradient id="paint19_linear_1221_15281" x1="132.807" y1="33.3063" x2="137.209" y2="33.3063" gradientUnits="userSpaceOnUse"><stop stop-color="#CABC28"></stop><stop offset="1" stop-color="#C79D2D"></stop></linearGradient><linearGradient id="paint20_linear_1221_15281" x1="137.877" y1="33.3063" x2="142.53" y2="33.3063" gradientUnits="userSpaceOnUse"><stop stop-color="#CABC28"></stop><stop offset="1" stop-color="#C79D2D"></stop></linearGradient></defs></svg> 